<svg xmlns="http://www.w3.org/2000/svg" xmlns:xlink="http://www.w3.org/1999/xlink" viewBox="0 0 460 460"><g><path d="M455.2,158.9l-65.8-46.5V44.5c-0.7-6.7-5.8-12.1-12.5-13.1H88.4c-6.7,0.9-11.9,6.3-12.5,13.1v67.4l-68.4,47c-2.7,2-4.4,5-4.7,8.4v248.2c0.9,6.8,6.3,12.2,13.1,13.1h433.6c5.7,0,7.8-6.8,7.8-13.1V167.3C457.2,164.2,457.8,161,455.2,158.9z M389.3,137.5l44.9,30.8l-44.9,34V137.5z M96.8,52.4h271.7v166.1L232.6,320.9L96.8,218.5L96.8,52.4L96.8,52.4z M75.9,137v65.8l-44.9-34.5L75.9,137z M23.6,189.8l146.3,110.8L23.6,399.3V189.8z M48.7,407.6l139-93.5l37.1,28.2c2.1,1.6,4.7,2.5,7.3,2.6c2.1,0,3.1-1,5.2-2.6l38.7-29.8l140.5,95.1H48.7z M436.3,395.6l-143.2-96.1l143.2-109.7V395.6z"/><path d="M149,120.3h47c5.8,0,10.4-4.7,10.4-10.4s-4.7-10.4-10.4-10.4h-47c-5.8,0-10.4,4.7-10.4,10.4S143.2,120.3,149,120.3z"/><path d="M149,167.3h167.2c5.8,0,10.4-4.7,10.4-10.4s-4.7-10.4-10.4-10.4H149c-5.8,0-10.4,4.7-10.4,10.4S143.2,167.3,149,167.3z"/><path d="M326.6,203.9c0-5.8-4.7-10.4-10.4-10.4H149c-5.8,0-10.4,4.7-10.4,10.4s4.7,10.4,10.4,10.4h167.2C322,214.3,326.6,209.6,326.6,203.9z"/></g></svg>