<svg xmlns="http://www.w3.org/2000/svg" xmlns:xlink="http://www.w3.org/1999/xlink" viewBox="0 0 512 512"><g><path d="M256,61C148.5,61,61,148.5,61,256s87.5,195,195,195s195-87.5,195-195S363.5,61,256,61z M256,91c80.7,0,148.1,58.3,162.2,135c-9.4-1.5-65.1,8.9-107.5-36.3c-24-25.6-55.6-23.9-54.7-23.7c-20.9,0-40.4,8.4-54.7,23.7c-21.7,23.1-53,36.3-86,36.3H93.7C107.9,149.3,175.2,91,256,91z M103,317.7c58.1-12.2,113.9,36.5,107.6,96.9C161.6,400.6,121.9,364.5,103,317.7L103,317.7z M240.2,420.2c10.2-82.5-65.8-149.6-145.9-131.3c-2.2-10.7-3.3-21.7-3.3-33c9.9-1.6,79.4,10.4,132.2-45.8c17.7-18.9,47.8-19,65.6,0c52.8,56.3,122,44.2,132.2,45.8c0,11.3-1.1,22.3-3.3,33c-80.2-18.4-156,48.9-145.9,131.3C261.6,421.2,251.2,421.3,240.2,420.2L240.2,420.2z M301.3,414.6c-6.2-60.5,49.6-109.1,107.6-96.9C390,364.5,350.3,400.6,301.3,414.6z"/><path d="M301,271c0-24.8-20.2-45-45-45s-45,20.2-45,45c0,24.8,20.2,45,45,45S301,295.8,301,271z M256,286c-8.3,0-15-6.7-15-15c0-8.3,6.7-15,15-15c8.3,0,15,6.7,15,15C271,279.3,264.2,286,256,286z"/><path d="M436.8,75.2C388.3,26.7,324.1,0,256,0C115,0,0,115.1,0,256c0,140.9,115,256,256,256c68.1,0,132.3-26.7,180.8-75.2C537.1,336.5,537.1,175.5,436.8,75.2L436.8,75.2z M256,482C131.4,482,30,380.6,30,256S131.4,30,256,30s226,101.4,226,226S380.6,482,256,482z"/></g></svg>